<?xml version="1.0" standalone="no"?>
<!DOCTYPE svg PUBLIC "-//W3C//DTD SVG 20010904//EN"
 "http://www.w3.org/TR/2001/REC-SVG-20010904/DTD/svg10.dtd">
<svg version="1.0" xmlns="http://www.w3.org/2000/svg"
 width="640.000000pt" height="640.000000pt" viewBox="0 0 640.000000 640.000000"
 preserveAspectRatio="xMidYMid meet">
<metadata>
Created by potrace 1.16, written by Peter Selinger 2001-2019
</metadata>
<g transform="translate(0.000000,640.000000) scale(0.100000,-0.100000)"
fill="#000000" stroke="none">
<path d="M3430 5973 c0 -45 -11 -41 139 -59 59 -8 71 0 71 47 0 30 -10 34
-133 45 l-77 7 0 -40z"/>
<path d="M4251 5762 l-19 -38 93 -47 94 -46 20 34 20 34 -22 14 c-12 8 -55 31
-94 51 l-73 36 -19 -38z"/>
<path d="M3030 5399 c-101 -13 -198 -31 -211 -39 -10 -7 -2 -49 34 -196 26
-103 46 -189 44 -191 -5 -4 -175 -63 -203 -70 -18 -4 -28 15 -92 164 -40 92
-76 174 -81 181 -7 11 -17 10 -52 -8 -79 -39 -209 -115 -209 -122 0 -3 44 -75
98 -160 54 -84 101 -158 105 -164 4 -7 -9 -22 -32 -37 -21 -14 -64 -46 -94
-71 l-56 -46 -92 103 c-51 56 -110 121 -131 145 -21 23 -42 42 -47 42 -15 0
-202 -201 -196 -210 3 -5 71 -61 150 -125 80 -64 145 -121 145 -127 0 -5 -9
-21 -20 -36 -11 -14 -17 -29 -13 -32 4 -4 37 -29 73 -54 l64 -47 50 58 c116
134 211 216 342 293 169 100 322 149 536 173 l113 13 0 84 0 85 -62 3 c-57 3
-63 5 -63 25 -1 67 -31 361 -37 367 -4 3 -33 3 -63 -1z"/>
<path d="M3520 5283 c0 -4 -7 -48 -15 -98 -8 -49 -15 -93 -15 -96 0 -8 141
-41 147 -35 9 8 53 187 49 195 -3 5 -34 14 -68 20 -35 7 -71 14 -80 17 -10 3
-18 2 -18 -3z"/>
<path d="M3876 5093 c-20 -47 -36 -90 -36 -97 0 -11 80 -56 99 -56 9 0 91 161
91 179 0 10 -26 23 -97 51 -20 8 -24 2 -57 -77z"/>
<path d="M4233 4953 c-16 -21 -44 -59 -61 -85 l-32 -47 59 -45 59 -45 53 62
c29 34 59 69 66 79 16 18 6 31 -71 87 l-44 31 -29 -37z"/>
<path d="M5226 4957 l-28 -23 52 -79 c28 -44 55 -81 60 -83 5 -2 23 4 39 13
28 14 30 18 20 38 -22 40 -102 157 -108 157 -3 0 -19 -10 -35 -23z"/>
<path d="M5443 4590 l-32 -19 34 -75 c19 -41 35 -79 35 -85 0 -18 20 -23 55
-11 l34 11 -18 47 c-34 86 -65 152 -70 152 -3 0 -20 -9 -38 -20z"/>
<path d="M2980 4580 c-56 -12 -83 -26 -121 -63 -71 -69 -74 -82 -77 -369 l-3
-258 -77 0 c-92 0 -138 -20 -164 -71 -16 -31 -18 -77 -18 -522 0 -530 -1 -521
56 -566 26 -20 37 -21 350 -21 l324 0 0 170 0 170 -55 0 c-65 0 -65 -3 -34
128 l20 90 -22 44 c-31 60 -31 129 0 162 13 14 39 30 57 36 l34 12 0 184 0
184 -155 0 -156 0 3 244 c3 243 3 245 27 270 24 25 28 26 152 26 l127 0 4 75
c2 55 0 76 -10 80 -20 7 -222 4 -262 -5z"/>
<path d="M4333 4410 c-34 -27 -64 -53 -67 -59 -3 -5 4 -22 17 -38 62 -77 156
-249 173 -318 4 -15 12 -28 18 -31 6 -2 45 6 86 19 71 22 75 25 73 51 -2 34
-62 164 -119 262 -43 75 -105 163 -114 163 -3 0 -33 -22 -67 -49z"/>
<path d="M4818 4052 c-42 -15 -79 -30 -83 -33 -3 -3 -1 -19 5 -35 53 -139 75
-462 46 -663 -10 -63 -18 -119 -19 -125 -2 -9 145 -54 184 -55 25 -1 51 165
57 361 5 183 -11 336 -51 490 -26 98 -27 99 -139 60z"/>
<path d="M1452 3486 c3 -92 9 -171 14 -176 5 -5 76 1 162 13 l154 21 -6 29
c-3 16 -6 80 -6 142 l0 113 -92 6 c-51 4 -124 9 -162 12 l-69 6 5 -166z"/>
<path d="M754 3305 c8 -124 10 -127 55 -119 20 4 37 7 38 8 1 1 -3 48 -9 104
l-11 102 -40 0 -40 0 7 -95z"/>
<path d="M1922 3220 c-40 -9 -75 -20 -78 -23 -23 -23 127 -361 215 -485 53
-75 177 -212 191 -212 5 0 33 29 64 63 l56 64 -41 44 c-63 67 -142 176 -192
264 -44 78 -117 259 -117 290 0 18 -5 18 -98 -5z"/>
<path d="M4496 3228 c-79 -269 -241 -522 -430 -668 -25 -19 -45 -39 -46 -43 0
-13 94 -136 106 -137 20 0 160 127 233 211 87 100 144 186 204 305 44 88 107
257 107 287 0 11 -15 20 -42 27 -24 6 -59 15 -78 21 -45 12 -50 11 -54 -3z"/>
<path d="M828 2973 c-10 -2 -18 -10 -18 -17 0 -12 50 -189 54 -194 2 -2 67 18
73 23 2 1 -6 33 -16 71 -10 38 -21 81 -25 97 -6 27 -23 32 -68 20z"/>
<path d="M2891 2234 c-19 -70 -21 -88 -11 -94 23 -14 181 -40 283 -47 l97 -6
0 90 0 90 -87 7 c-85 7 -212 28 -243 40 -12 5 -20 -12 -39 -80z"/>
<path d="M2525 2080 c-36 -71 -65 -136 -65 -143 0 -20 300 -140 314 -126 11
10 84 295 78 300 -4 3 -38 16 -77 29 -38 12 -93 33 -122 46 -28 13 -54 24 -57
24 -3 0 -35 -58 -71 -130z"/>
<path d="M1751 1569 c-13 -17 -21 -32 -19 -33 50 -41 170 -116 178 -111 6 3
17 19 25 34 l14 28 -82 57 c-46 31 -85 56 -88 56 -3 0 -15 -14 -28 -31z"/>
<path d="M2116 1344 c-9 -20 -15 -38 -14 -40 4 -3 133 -62 166 -75 20 -8 25
-4 39 26 9 19 15 36 12 38 -5 4 -179 87 -183 87 -1 0 -10 -16 -20 -36z"/>
<path d="M3650 335 c0 -11 -12 -15 -48 -15 -26 0 -53 -5 -60 -12 -31 -31 1
-94 44 -85 13 2 21 0 17 -5 -3 -6 -19 -7 -35 -4 -21 4 -28 2 -26 -7 6 -17 56
-21 74 -6 8 7 14 29 14 55 0 24 5 44 10 44 6 0 10 -13 10 -29 0 -56 53 -66 58
-11 2 19 8 41 14 47 8 10 3 13 -21 13 -21 0 -31 5 -31 15 0 8 -4 15 -10 15 -5
0 -10 -7 -10 -15z"/>
<path d="M3742 308 c-7 -7 -12 -25 -12 -40 0 -50 75 -65 87 -19 5 18 7 18 28
-7 20 -23 27 -25 51 -17 32 11 45 55 23 81 -16 20 -66 18 -79 -3 -10 -17 -10
-17 -20 0 -13 20 -60 23 -78 5z"/>
</g>
</svg>
